<svg width="16" height="15" viewBox="0 0 16 15" fill="none" xmlns="http://www.w3.org/2000/svg">
<path d="M7.93928 15H7.05876C7.02176 14.9892 6.98398 14.9812 6.94577 14.976C6.03352 14.9226 5.14089 14.689 4.3194 14.2887C2.02028 13.1548 0.610487 11.3273 0.118379 8.8056C0.0626133 8.51993 0.0386447 8.22838 0 7.93977V7.05926C0.0111321 7.01763 0.0194671 6.9753 0.0249483 6.93256C0.0978351 5.88622 0.367368 4.89124 0.882467 3.97845C2.26487 1.52378 4.36831 0.186378 7.18497 0.0151677C8.5148 -0.0733284 9.84167 0.226819 11.0039 0.879047C13.4728 2.25362 14.8122 4.36587 14.9878 7.18644C15.0732 8.52087 14.7719 9.85161 14.12 11.0191C12.9561 13.1349 11.1848 14.4231 8.80609 14.8836C8.51992 14.9349 8.22789 14.9614 7.93928 15ZM13.3314 7.49951C13.3314 4.28663 10.7085 1.66857 7.49657 1.67102C4.28467 1.67346 1.66466 4.29347 1.66661 7.50489C1.66857 10.7163 4.28956 13.3358 7.50147 13.3339C10.7134 13.3319 13.3334 10.7095 13.3314 7.49951Z" fill="#007CBA"/>
<path d="M10.9966 5.19107V5.01155L10.9281 4.96018L10.912 4.94844L10.9076 4.94551C10.6229 4.66179 10.3387 4.37758 10.0549 4.09288L10.052 4.08848L10.0398 4.07184L9.98842 4.00385H9.81085L9.74922 4.07527L9.74433 4.08212C8.99752 4.83088 8.24909 5.57866 7.49902 6.32546L5.25274 4.07869L5.18963 4.00189H5.0106L4.96168 4.06989C4.95728 4.07527 4.95337 4.08114 4.94945 4.08652L4.94652 4.09092L4.09389 4.94355L4.08948 4.94648L4.07334 4.95822L4.00486 5.00959V5.18716L4.07481 5.24928L4.08117 5.25418L6.32501 7.49948C5.57494 8.24954 4.82618 8.9983 4.07872 9.74576L4.00143 9.80837V9.9879L4.06943 10.0393C4.07481 10.0437 4.08068 10.0476 4.08655 10.0515L4.09046 10.0544C4.37516 10.3381 4.65937 10.6224 4.94309 10.9071L4.94603 10.9115L4.95777 10.9276L5.00668 10.9961H5.18474L5.24883 10.9237L5.25421 10.9173L7.49902 8.67349L9.7453 10.9198L9.80841 10.9971H9.98744L10.0388 10.9286L10.051 10.9124L10.054 10.908C10.3377 10.6233 10.6219 10.3391 10.9066 10.0554L10.9105 10.0525L10.9276 10.0402L10.9956 9.98888V9.81131L10.9232 9.74967L10.9169 9.74429C10.1688 8.99782 9.42082 8.24954 8.67304 7.49948L10.9193 5.2532L10.9966 5.19107Z" fill="#007CBA"/>
</svg>
