<svg width="15" height="15" viewBox="0 0 15 15" fill="none" xmlns="http://www.w3.org/2000/svg">
<g clip-path="url(#clip0_102_19)">
<path d="M7.94 15H7.06H6.94C6.03007 14.9428 5.14006 14.7084 4.32 14.31C3.22522 13.8042 2.27043 13.0389 1.53851 12.0804C0.806589 11.1219 0.319663 9.99931 0.12 8.80998C0.06 8.51998 0 8.22998 0 7.93998V7.05998C0.00554549 7.01682 0.00554549 6.97314 0 6.92998C0.076614 5.90091 0.376938 4.90097 0.88 3.99998C1.47656 2.83087 2.37569 1.84312 3.48373 1.1396C4.59177 0.43608 5.86818 0.0425429 7.18 -1.99312e-05C8.51178 -0.0839062 9.83915 0.221878 11 0.87998C12.1692 1.47903 13.1568 2.38013 13.8602 3.48971C14.5635 4.5993 14.9571 5.87693 15 7.18998C15.0745 8.51779 14.7693 9.83936 14.12 11C13.5917 12.0125 12.8367 12.8894 11.914 13.5624C10.9912 14.2354 9.92555 14.6863 8.8 14.88C8.52 14.93 8.23 15 7.94 15ZM13.33 7.49998C13.33 6.34691 12.9881 5.21974 12.3475 4.26101C11.7069 3.30227 10.7963 2.55502 9.73104 2.11376C8.66575 1.6725 7.49353 1.55705 6.36262 1.782C5.23171 2.00695 4.19291 2.56221 3.37757 3.37755C2.56223 4.19289 2.00697 5.23169 1.78202 6.3626C1.55707 7.49351 1.67252 8.66573 2.11378 9.73102C2.55504 10.7963 3.30229 11.7068 4.26103 12.3474C5.21976 12.9881 6.34693 13.33 7.5 13.33C9.0454 13.3273 10.5267 12.7123 11.6195 11.6195C12.7123 10.5267 13.3274 9.04538 13.33 7.49998Z" fill="#007CBA"/>
<path d="M3.65001 6.44C3.64462 6.4136 3.64462 6.38639 3.65001 6.36C3.67709 6.27454 3.7302 6.19967 3.80192 6.14588C3.87364 6.09209 3.96038 6.06206 4.05001 6.06H5.57001V10.87H4.19001C4.07004 10.885 3.94882 10.8543 3.85056 10.7838C3.75231 10.7134 3.68425 10.6084 3.66001 10.49L3.65001 6.44Z" fill="#007CBA"/>
<path d="M6.05999 8.40002V7.16002C6.05638 6.85258 6.17093 6.55548 6.37999 6.33002L8.23999 4.25002C8.2793 4.1973 8.33485 4.15894 8.39809 4.14088C8.46133 4.12281 8.52875 4.12602 8.58999 4.15002L8.86999 4.22002C8.97816 4.24744 9.0786 4.29928 9.1636 4.37157C9.24861 4.44387 9.3159 4.53468 9.36033 4.63705C9.40475 4.73941 9.42511 4.8506 9.41985 4.96206C9.41459 5.07352 9.38385 5.1823 9.32999 5.28003L8.84999 6.14002C8.72999 6.35002 8.84999 6.53003 9.08999 6.53003H10.44C10.576 6.52771 10.7107 6.5566 10.8338 6.61448C10.9569 6.67236 11.0651 6.75769 11.1501 6.86392C11.2351 6.97014 11.2946 7.09443 11.324 7.22724C11.3535 7.36005 11.3521 7.49784 11.32 7.63002C11.16 8.40002 10.99 9.17002 10.82 9.94002C10.7627 10.1945 10.6227 10.4228 10.4218 10.5893C10.221 10.7557 9.97067 10.8509 9.70999 10.86H7.19999C6.89825 10.8474 6.61258 10.7206 6.40089 10.5052C6.18921 10.2898 6.06734 10.0019 6.05999 9.70002C6.05999 9.26002 6.05999 8.83002 6.05999 8.40002Z" fill="#007CBA"/>
</g>
<defs>
<clipPath id="clip0_102_19">
<rect width="15" height="15" fill="white"/>
</clipPath>
</defs>
</svg>
