<svg width="166" height="27" viewBox="0 0 166 27" fill="none" xmlns="http://www.w3.org/2000/svg">
<path d="M37.2581 6.43106V3.02706C37.2581 2.93306 37.2911 2.85106 37.3601 2.78506C37.4261 2.71906 37.5061 2.68506 37.6021 2.68506H40.8051C40.9011 2.68506 40.9811 2.71806 41.0491 2.78506C41.1151 2.85106 41.1491 2.93306 41.1491 3.02706V6.43106C41.1491 6.52706 41.1961 6.57406 41.2921 6.57406H44.8111C44.9071 6.57406 44.9871 6.60706 45.0531 6.67406C45.1191 6.74206 45.1551 6.82206 45.1551 6.91806V9.46306C45.1551 9.55906 45.1201 9.63906 45.0531 9.70506C44.9871 9.77306 44.9071 9.80706 44.8111 9.80706H41.2921C41.1961 9.80706 41.1491 9.85406 41.1491 9.95006V16.0131C41.1491 16.6421 41.2781 17.1111 41.5361 17.4151C41.7921 17.7201 42.2081 17.8721 42.7801 17.8721L44.4961 17.7961C44.5921 17.7961 44.6721 17.8291 44.7381 17.8961C44.8041 17.9641 44.8381 18.0441 44.8381 18.1401V20.8481C44.8381 21.0571 44.7251 21.1821 44.4961 21.2191C43.6951 21.2581 42.3501 21.3631 42.0071 21.3631C40.4251 21.3631 39.2431 21.0991 38.4601 20.5761C37.6791 20.0511 37.2781 19.0641 37.2591 17.6151V9.95106V6.43106H37.2581Z" fill="#1F2023"/>
<path d="M58.262 7.74506C59.196 8.68106 59.662 9.94806 59.662 11.5501V20.9311C59.662 21.0271 59.629 21.1071 59.562 21.1731C59.496 21.2411 59.414 21.275 59.318 21.275H55.972C55.876 21.275 55.796 21.2421 55.73 21.1731C55.662 21.1071 55.6281 21.0271 55.6281 20.9311V12.3801C55.6281 11.6161 55.415 10.9971 54.985 10.5211C54.555 10.0451 53.989 9.80605 53.284 9.80605C52.577 9.80605 52.011 10.0441 51.581 10.5211C51.153 10.9981 50.938 11.6171 50.938 12.3801V20.9311C50.938 21.0271 50.905 21.1071 50.838 21.1731C50.77 21.2411 50.69 21.275 50.594 21.275H47.248C47.152 21.275 47.072 21.2421 47.006 21.1731C46.938 21.1071 46.9041 21.0271 46.9041 20.9311V1.59705C46.9041 1.50105 46.937 1.42106 47.006 1.35506C47.072 1.28906 47.152 1.25305 47.248 1.25305H50.594C50.69 1.25305 50.77 1.28806 50.838 1.35506C50.904 1.42106 50.938 1.50105 50.938 1.59705V7.91705C50.938 7.97605 50.958 8.01305 50.995 8.03205C51.034 8.05205 51.061 8.04205 51.081 8.00305C51.862 6.89805 53.026 6.34505 54.571 6.34505C56.098 6.34505 57.326 6.81206 58.262 7.74506Z" fill="#1F2023"/>
<path d="M75.0211 14.8391C75.0011 15.0681 74.8761 15.1831 74.6481 15.1831H65.8101C65.6971 15.1831 65.6581 15.2301 65.6971 15.3261C65.7541 15.7071 65.8591 16.0881 66.0111 16.4711C66.5071 17.5371 67.5171 18.0731 69.0421 18.0731C70.2631 18.0531 71.2261 17.5571 71.9311 16.5851C72.0071 16.4721 72.0931 16.4131 72.1891 16.4131C72.2461 16.4131 72.3121 16.4521 72.3881 16.5281L74.4491 18.5591C74.5431 18.6531 74.5921 18.7391 74.5921 18.8151C74.5921 18.8541 74.5531 18.9301 74.4771 19.0441C73.8481 19.8271 73.0381 20.4331 72.0471 20.8601C71.0551 21.2901 69.9691 21.5051 68.7851 21.5051C67.1461 21.5051 65.7581 21.1321 64.6251 20.3901C63.4901 19.6461 62.6741 18.6071 62.1801 17.2731C61.7801 16.3201 61.5781 15.0701 61.5781 13.5251C61.5781 12.4781 61.7211 11.5521 62.0081 10.7521C62.4461 9.39809 63.2131 8.32009 64.3111 7.52009C65.4071 6.71909 66.7071 6.31909 68.2131 6.31909C70.1211 6.31909 71.6511 6.87209 72.8051 7.97909C73.9571 9.08409 74.6591 10.5611 74.9071 12.4111C75.0211 13.1321 75.0591 13.9421 75.0211 14.8391ZM65.8691 11.4931C65.7931 11.7411 65.7261 12.0461 65.6681 12.4071C65.6681 12.5031 65.7151 12.5501 65.8111 12.5501H70.7601C70.8731 12.5501 70.9121 12.5031 70.8731 12.4071C70.7771 11.8541 70.7301 11.5891 70.7301 11.6061C70.5581 11.0341 70.2571 10.5901 69.8301 10.2761C69.4001 9.96209 68.8711 9.80509 68.2421 9.80509C67.0411 9.80609 66.2501 10.3681 65.8691 11.4931Z" fill="#1F2023"/>
<path d="M96.729 7.68802C97.567 8.58402 97.987 9.84201 97.987 11.463V20.93C97.987 21.026 97.954 21.106 97.887 21.172C97.819 21.24 97.739 21.274 97.643 21.274H94.297C94.201 21.274 94.121 21.241 94.055 21.172C93.987 21.106 93.953 21.026 93.953 20.93V12.35C93.953 11.569 93.754 10.948 93.353 10.491C92.952 10.034 92.417 9.80502 91.751 9.80502C91.083 9.80502 90.54 10.034 90.12 10.491C89.7 10.948 89.491 11.559 89.491 12.321V20.93C89.491 21.026 89.458 21.106 89.391 21.172C89.323 21.24 89.243 21.274 89.147 21.274H85.831C85.735 21.274 85.653 21.241 85.587 21.172C85.521 21.106 85.487 21.026 85.487 20.93V12.35C85.487 11.588 85.276 10.973 84.858 10.504C84.438 10.037 83.895 9.80502 83.227 9.80502C82.618 9.80502 82.106 9.98701 81.698 10.348C81.288 10.709 81.044 11.215 80.968 11.864V20.93C80.968 21.026 80.935 21.106 80.868 21.172C80.802 21.24 80.72 21.274 80.626 21.274H77.278C77.182 21.274 77.102 21.241 77.036 21.172C76.97 21.106 76.936 21.026 76.936 20.93V6.91602C76.936 6.82002 76.969 6.74001 77.036 6.67201C77.102 6.60601 77.182 6.57201 77.278 6.57201H80.626C80.72 6.57201 80.802 6.60501 80.868 6.67201C80.934 6.74001 80.968 6.82002 80.968 6.91602V8.03101C80.968 8.08801 80.988 8.12701 81.027 8.14401C81.064 8.16401 81.101 8.14401 81.14 8.08701C81.921 6.92501 83.132 6.34302 84.773 6.34302C85.726 6.34302 86.56 6.54202 87.275 6.94302C87.99 7.34402 88.539 7.91602 88.92 8.66002C88.977 8.77502 89.043 8.77502 89.121 8.66002C89.539 7.87902 90.107 7.29702 90.822 6.91602C91.537 6.53502 92.342 6.34402 93.238 6.34402C94.727 6.34502 95.889 6.79202 96.729 7.68802Z" fill="#1F2023"/>
<path d="M113.287 14.8391C113.267 15.0681 113.144 15.1831 112.916 15.1831H104.078C103.963 15.1831 103.926 15.2301 103.963 15.3261C104.022 15.7071 104.125 16.0881 104.277 16.4711C104.773 17.5371 105.783 18.0731 107.31 18.0731C108.529 18.0531 109.492 17.5571 110.199 16.5851C110.273 16.4721 110.359 16.4131 110.455 16.4131C110.514 16.4131 110.58 16.4521 110.656 16.5281L112.715 18.5591C112.811 18.6531 112.858 18.7391 112.858 18.8151C112.858 18.8541 112.821 18.9301 112.745 19.0441C112.116 19.8271 111.306 20.4331 110.313 20.8601C109.321 21.2901 108.235 21.5051 107.053 21.5051C105.412 21.5051 104.026 21.1321 102.891 20.3901C101.756 19.6461 100.942 18.6071 100.446 17.2731C100.046 16.3201 99.8461 15.0701 99.8461 13.5251C99.8461 12.4781 99.9891 11.5521 100.274 10.7521C100.713 9.39809 101.481 8.32009 102.577 7.52009C103.673 6.72009 104.975 6.31909 106.481 6.31909C108.387 6.31909 109.917 6.87209 111.071 7.97909C112.225 9.08409 112.925 10.5611 113.173 12.4111C113.287 13.1321 113.324 13.9421 113.287 14.8391ZM104.135 11.4931C104.059 11.7411 103.992 12.0461 103.936 12.4071C103.936 12.5031 103.983 12.5501 104.079 12.5501H109.026C109.141 12.5501 109.178 12.5031 109.141 12.4071C109.045 11.8541 108.998 11.5891 108.998 11.6061C108.826 11.0341 108.525 10.5901 108.096 10.2761C107.668 9.96209 107.139 9.80509 106.51 9.80509C105.309 9.80609 104.516 10.3681 104.135 11.4931Z" fill="#1F2023"/>
<path d="M126.557 7.74506C127.493 8.68106 127.959 9.94806 127.959 11.5501V20.9311C127.959 21.0271 127.926 21.1071 127.859 21.1731C127.791 21.2411 127.711 21.275 127.615 21.275H124.269C124.173 21.275 124.093 21.2421 124.025 21.1731C123.959 21.1071 123.925 21.0271 123.925 20.9311V12.3801C123.925 11.6161 123.71 10.9971 123.282 10.5211C122.852 10.0441 122.286 9.80605 121.581 9.80605C120.874 9.80605 120.308 10.0441 119.878 10.5211C119.45 10.9981 119.235 11.6171 119.235 12.3801V20.9311C119.235 21.0271 119.202 21.1071 119.135 21.1731C119.067 21.2411 118.987 21.275 118.891 21.275H115.545C115.449 21.275 115.367 21.2421 115.301 21.1731C115.235 21.1071 115.201 21.0271 115.201 20.9311V1.59705C115.201 1.50105 115.234 1.42106 115.301 1.35506C115.368 1.28906 115.449 1.25305 115.545 1.25305H118.891C118.987 1.25305 119.067 1.28806 119.135 1.35506C119.201 1.42106 119.235 1.50105 119.235 1.59705V7.91705C119.235 7.97605 119.253 8.01305 119.292 8.03205C119.329 8.05205 119.358 8.04205 119.378 8.00305C120.159 6.89805 121.323 6.34505 122.866 6.34505C124.393 6.34505 125.623 6.81206 126.557 7.74506Z" fill="#1F2023"/>
<path d="M130.49 21.1731C130.422 21.1071 130.388 21.0271 130.388 20.9311V6.88807C130.388 6.79207 130.421 6.71207 130.49 6.64607C130.556 6.58007 130.636 6.54407 130.732 6.54407H134.078C134.174 6.54407 134.256 6.57907 134.322 6.64607C134.388 6.71307 134.422 6.79207 134.422 6.88807V20.9311C134.422 21.0271 134.389 21.1071 134.322 21.1731C134.256 21.2411 134.174 21.2751 134.078 21.2751H130.732C130.637 21.2741 130.557 21.2411 130.49 21.1731Z" fill="#1F2023"/>
<path d="M130.49 4.44106C130.422 4.37506 130.388 4.29505 130.388 4.19905V1.42506C130.388 1.32906 130.421 1.24905 130.49 1.18305C130.556 1.11705 130.636 1.08105 130.732 1.08105H134.078C134.174 1.08105 134.256 1.11605 134.322 1.18305C134.388 1.25005 134.422 1.32906 134.422 1.42506V4.19905C134.422 4.29505 134.389 4.37506 134.322 4.44106C134.256 4.50906 134.174 4.54305 134.078 4.54305H130.732C130.637 4.54305 130.557 4.51006 130.49 4.44106Z" fill="#1F2023"/>
<path d="M146.076 6.67307C146.142 6.60707 146.224 6.57307 146.32 6.57307H149.666C149.76 6.57307 149.842 6.60607 149.908 6.67307C149.974 6.74107 150.008 6.82107 150.008 6.91707V19.9581C150.008 22.4561 149.289 24.2371 147.85 25.3061C146.411 26.3751 144.555 26.9081 142.287 26.9081C141.619 26.9081 140.875 26.8611 140.057 26.7651C139.866 26.7451 139.77 26.6221 139.77 26.3941L139.885 23.4491C139.885 23.2011 140.018 23.0951 140.285 23.1331C140.971 23.2481 141.599 23.3051 142.172 23.3051C143.393 23.3051 144.332 23.0371 144.99 22.5041C145.646 21.9711 145.976 21.1131 145.976 19.9301C145.976 19.8731 145.956 19.8401 145.917 19.8301C145.88 19.8201 145.841 19.8361 145.804 19.8731C145.079 20.6561 144.021 21.0451 142.63 21.0451C141.39 21.0451 140.251 20.7461 139.212 20.1451C138.171 19.5451 137.433 18.5771 136.995 17.2431C136.708 16.3661 136.565 15.2311 136.565 13.8391C136.565 12.3531 136.737 11.1421 137.081 10.2081C137.481 9.04407 138.157 8.11007 139.11 7.40507C140.063 6.70007 141.171 6.34607 142.428 6.34607C143.897 6.34607 145.022 6.78507 145.803 7.66007C145.84 7.69907 145.879 7.71307 145.916 7.70307C145.955 7.69507 145.975 7.66007 145.975 7.60307V6.91707C145.977 6.82107 146.01 6.74107 146.076 6.67307ZM145.977 13.8101C145.977 13.2181 145.957 12.7611 145.918 12.4371C145.881 12.1131 145.814 11.8081 145.719 11.5211C145.547 11.0071 145.262 10.5911 144.862 10.2771C144.462 9.96307 143.966 9.80607 143.374 9.80607C142.802 9.80607 142.315 9.96207 141.915 10.2771C141.515 10.5921 141.22 11.0071 141.03 11.5211C140.762 12.0931 140.63 12.8671 140.63 13.8371C140.63 14.9051 140.743 15.6691 140.972 16.1261C141.144 16.6401 141.445 17.0561 141.872 17.3701C142.302 17.6841 142.811 17.8411 143.403 17.8411C144.012 17.8411 144.518 17.6851 144.919 17.3701C145.32 17.0551 145.595 16.6491 145.749 16.1531C145.9 15.5831 145.977 14.8001 145.977 13.8101Z" fill="#1F2023"/>
<path d="M163.68 7.74506C164.614 8.68106 165.08 9.94806 165.08 11.5501V20.9311C165.08 21.0271 165.047 21.1071 164.98 21.1731C164.914 21.2411 164.832 21.275 164.738 21.275H161.39C161.296 21.275 161.214 21.2421 161.148 21.1731C161.082 21.1071 161.048 21.0271 161.048 20.9311V12.3801C161.048 11.6161 160.833 10.9971 160.403 10.5211C159.975 10.0441 159.407 9.80605 158.702 9.80605C157.997 9.80605 157.429 10.0441 157.001 10.5211C156.571 10.9981 156.356 11.6171 156.356 12.3801V20.9311C156.356 21.0271 156.323 21.1071 156.256 21.1731C156.19 21.2411 156.108 21.275 156.014 21.275H152.666C152.57 21.275 152.49 21.2421 152.424 21.1731C152.358 21.1071 152.324 21.0271 152.324 20.9311V1.59705C152.324 1.50105 152.357 1.42106 152.424 1.35506C152.491 1.28906 152.57 1.25305 152.666 1.25305H156.014C156.108 1.25305 156.19 1.28806 156.256 1.35506C156.322 1.42206 156.356 1.50105 156.356 1.59705V7.91705C156.356 7.97605 156.376 8.01305 156.415 8.03205C156.452 8.05205 156.481 8.04205 156.499 8.00305C157.282 6.89805 158.444 6.34505 159.989 6.34505C161.516 6.34505 162.746 6.81206 163.68 7.74506Z" fill="#1F2023"/>
<path d="M18.088 0.366943H0.0150146V5.60194H18.088V0.366943Z" fill="#EF4C85"/>
<path d="M27.3671 8.4939H5.87805V13.7289H27.3671V8.4939Z" fill="#AC3092"/>
<path d="M27.368 16.621H21.02V21.856H27.368V16.621Z" fill="#AC3092"/>
<path d="M18.088 16.621H11.741V21.856H18.088V16.621Z" fill="#AC3092"/>
<path d="M27.368 0.366943H21.02V5.60194H27.368V0.366943Z" fill="#AC3092"/>
</svg>
