<svg width="15" height="15" viewBox="0 0 15 15" fill="none" xmlns="http://www.w3.org/2000/svg">
<path d="M7.93798 15H7.05761C7.02061 14.9892 6.98284 14.9812 6.94463 14.976C6.03253 14.9226 5.14005 14.689 4.31869 14.2887C2.01995 13.1548 0.610387 11.3273 0.11836 8.8056C0.0626031 8.51993 0.0386383 8.22838 0 7.93977V7.05926C0.0111303 7.01763 0.0194639 6.9753 0.0249442 6.93256C0.0978191 5.88622 0.367308 4.89124 0.882323 3.97845C2.2645 1.52378 4.3676 0.186378 7.1838 0.0151677C8.51341 -0.0733284 9.84006 0.226819 11.0021 0.879047C13.4706 2.25362 14.8097 4.36587 14.9853 7.18644C15.0707 8.52087 14.7694 9.85161 14.1177 11.0191C12.954 13.1349 11.1829 14.4231 8.80465 14.8836C8.51853 14.9349 8.22654 14.9614 7.93798 15ZM13.3293 7.49951C13.3293 4.28663 10.7067 1.66857 7.49535 1.67102C4.28397 1.67346 1.66438 4.29347 1.66634 7.50489C1.6683 10.7163 4.28886 13.3358 7.50024 13.3339C10.7116 13.3319 13.3312 10.7095 13.3293 7.49951Z" fill="#007CBA"/>
<path d="M7.56137 3.97162H6.22174V8.45147H7.56137V3.97162Z" fill="#007CBA"/>
<path d="M10.7009 8.45142V7.11157H6.22175V8.45142H10.7009Z" fill="#007CBA"/>
</svg>
