<svg width="15" height="15" viewBox="0 0 15 15" fill="none" xmlns="http://www.w3.org/2000/svg">
<path d="M7.93976 15H7.05947C7.02246 14.9892 6.9847 14.9812 6.9465 14.976C6.03349 14.9229 5.14006 14.6894 4.31784 14.2889C2.0193 13.1554 0.610338 11.3284 0.117863 8.8074C0.0621113 8.52229 0.0386351 8.23034 0 7.94181V7.06155C0.0107821 7.01989 0.0189489 6.97758 0.0244526 6.9349C0.0978104 5.88886 0.366791 4.89417 0.882252 3.98164C2.26333 1.52572 4.37017 0.188709 7.18466 0.0151033C8.51415 -0.0731684 9.84063 0.226879 11.0027 0.878733C13.4709 2.25291 14.8104 4.36455 14.9855 7.1843C15.0718 8.51886 14.771 9.84996 14.1194 11.0178C12.9565 13.133 11.1856 14.4208 8.80685 14.8812C8.52075 14.9369 8.22879 14.9614 7.93976 15ZM13.3311 7.50022C13.3311 4.28826 10.7093 1.67096 7.49765 1.67292C4.28605 1.67488 1.66718 4.29461 1.66913 7.50511C1.67109 10.7156 4.28948 13.3344 7.50304 13.3324C10.7166 13.3304 13.3335 10.7107 13.3311 7.50022Z" fill="white"/>
<path d="M9.69056 4L11 5.24031L6.13719 11L3 7.81212L4.21609 6.47024L6.04074 8.32113C7.26096 6.87711 8.47035 5.44511 9.69056 4Z" fill="white"/>
</svg>
