<svg xmlns="http://www.w3.org/2000/svg" enable-background="new 0 0 64 64" viewBox="0 0 64 64"><path fill="#d9d5ca" d="M53.781,21H60c1.105,0,2,0.895,2,2v26c0,1.105-0.895,2-2,2H4c-1.105,0-2-0.895-2-2V23
		c0-1.105,0.895-2,2-2h38.954H53.781z"/><path fill="#e8e4d8" d="M60,21h-6.219H42.954h-10.68C34.23,35.676,46.789,47,62,47V23C62,21.895,61.105,21,60,21z"/><path fill="#88898d" d="M38,37h2c1.105,0,2,0.895,2,2v2c0,1.105-0.895,2-2,2H8c-1.105,0-2-0.895-2-2v-2c0-1.105,0.895-2,2-2
		l19,0L38,37z"/><path fill="#d9d5ca" d="M48.046,28l7-7h-1.265h-6.827L44,23.953l0.523,0.523L37,32l-0.61,0.61
			c0.75,1.228,1.587,2.396,2.5,3.5L40,35l7.523-7.523L48.046,28z"/><path fill="#d9d5ca" d="M55,22c0,0.379-0.148,0.737-0.417,1.005l-4.287,4.288l1.414,1.414l4.287-4.287
			C56.644,23.773,57,22.914,57,22c0-0.346-0.067-0.679-0.165-1h-2.249C54.852,21.268,55,21.622,55,22z"/><path fill="#ffc239" d="M40,23.953L44.046,28l10.116-10.116c1.117-1.117,1.117-2.929,0-4.046l0,0
		c-1.117-1.117-2.929-1.117-4.046,0L40,23.953z"/><rect width="10.639" height="4.243" x="32.942" y="27.617" fill="#88898d" transform="rotate(-45.001 38.261 29.739)"/><polygon fill="#b8b8bb" points="33 32 30 35 29 39 33 38 36 35"/><path fill="#ffd55d" d="M54.813,14.861c-0.139-0.373-0.352-0.724-0.651-1.023c-1.117-1.117-2.929-1.117-4.046,0L41,22.954
		l1.632,1.632c0.781,0.781,2.047,0.781,2.828,0l8.701-8.702C54.462,15.585,54.674,15.234,54.813,14.861z"/><path fill="#88898d" d="M49.707,28.707l-1.414-1.414l4.287-4.288c0.269-0.269,0.417-0.626,0.417-1.005
			c0-0.38-0.148-0.737-0.417-1.005l-4.809-4.81l1.414-1.414l4.809,4.81c0.646,0.646,1.003,1.505,1.003,2.42
			c0,0.914-0.356,1.773-1.003,2.42L49.707,28.707z"/><path fill="#ffc239" d="M55.518,49c-0.932,0-1.663-0.259-2.207-0.777c-0.708-0.673-0.852-1.583-0.911-2.274
			c-0.216,0.228-0.444,0.487-0.616,0.683c-0.958,1.089-1.94,2.219-3.112,1.811c-1.229-0.428-1.227-2.03-1.224-3.581
			c0-0.236,0-0.543-0.008-0.833c-0.483,0.578-1.29,1.717-2.571,3.964l-1.737-0.991c2.917-5.114,4.081-5.86,5.214-5.443
			c1.105,0.406,1.104,1.814,1.102,3.305c0,0.375-0.001,0.908,0.031,1.32c0.269-0.266,0.581-0.621,0.803-0.874
			c0.957-1.088,1.945-2.211,3.1-1.737c0.877,0.361,0.944,1.288,0.993,1.964c0.034,0.471,0.072,1.005,0.315,1.236
			c0.144,0.138,0.787,0.527,2.988-0.222l0.646,1.893C57.238,48.815,56.306,49,55.518,49z"/><rect width="14" height="2" x="45" y="38" fill="#88898d"/><rect width="7" height="2" x="49" y="34" fill="#88898d"/><path fill="#44bc59" d="M12 26c.551 0 1 .449 1 1h2c0-1.302-.839-2.402-2-2.816V23h-2v1.184C9.839 24.598 9 25.698 9 27c0 1.654 1.346 3 3 3 .551 0 1 .449 1 1s-.449 1-1 1-1-.449-1-1H9c0 1.302.839 2.402 2 2.816V35h2v-1.184c1.161-.414 2-1.514 2-2.816 0-1.654-1.346-3-3-3-.551 0-1-.449-1-1S11.449 26 12 26zM19 26c.551 0 1 .449 1 1h2c0-1.302-.839-2.402-2-2.816V23h-2v1.184c-1.161.414-2 1.514-2 2.816 0 1.654 1.346 3 3 3 .551 0 1 .449 1 1s-.449 1-1 1-1-.449-1-1h-2c0 1.302.839 2.402 2 2.816V35h2v-1.184c1.161-.414 2-1.514 2-2.816 0-1.654-1.346-3-3-3-.551 0-1-.449-1-1S18.449 26 19 26zM26 28c-.551 0-1-.449-1-1s.449-1 1-1 1 .449 1 1h2c0-1.302-.839-2.402-2-2.816V23h-2v1.184c-1.161.414-2 1.514-2 2.816 0 1.654 1.346 3 3 3 .551 0 1 .449 1 1s-.449 1-1 1-1-.449-1-1h-2c0 1.302.839 2.402 2 2.816V35h2v-1.184c1.161-.414 2-1.514 2-2.816C29 29.346 27.654 28 26 28z"/><path fill="#e5e5e5" d="M30,35l-0.467,1.867l1.574-0.393c1.239-0.31,2.37-0.95,3.272-1.853L35,34l-2-2L30,35z"/><path fill="#a0a1a4" d="M35,34l5.109-5.109c0.781-0.781,0.781-2.047,0-2.828l-0.586-0.586L33,32L35,34z"/><path d="M60,20h-5.663c-0.105-0.145-0.212-0.289-0.343-0.42l-0.057-0.057l0.932-0.932c1.505-1.505,1.505-3.955,0-5.46
		c-1.506-1.506-3.956-1.505-5.46,0L42.54,20H4c-1.654,0-3,1.346-3,3v26c0,1.654,1.346,3,3,3h56c1.654,0,3-1.346,3-3V23
		C63,21.346,61.654,20,60,20z M50.823,14.545c0.726-0.726,1.907-0.726,2.632,0c0.726,0.726,0.726,1.907,0,2.632l-0.932,0.932
		l-2.632-2.632L50.823,14.545z M48.477,16.891l2.632,2.632l-7.063,7.063l-2.632-2.632L48.477,16.891z M28.293,39.707
		C28.483,39.897,28.738,40,29,40c0.081,0,0.162-0.01,0.243-0.03l4-1c0.176-0.044,0.336-0.135,0.464-0.263L34.414,38H40
		c0.551,0,1,0.449,1,1v2c0,0.551-0.449,1-1,1H8c-0.551,0-1-0.449-1-1v-2c0-0.551,0.449-1,1-1h20.219l-0.189,0.757
		C27.945,39.098,28.044,39.458,28.293,39.707z M30.375,37.625l0.528-2.114L33,33.414L34.586,35l-2.097,2.097L30.375,37.625z
		 M34.414,32l6.109-6.109l1.586,1.586L36,33.586L34.414,32z M61,49c0,0.551-0.449,1-1,1H4c-0.551,0-1-0.449-1-1V23
		c0-0.551,0.449-1,1-1h36.54l-1.247,1.247c-0.325,0.325-0.363,0.812-0.147,1.193l-6.853,6.853l-3,3
		c-0.128,0.128-0.219,0.289-0.263,0.464L28.719,36H8c-1.654,0-3,1.346-3,3v2c0,1.654,1.346,3,3,3h32c1.654,0,3-1.346,3-3v-2
		c0-1.654-1.346-3-3-3h-3.586l0.293-0.293l6.853-6.853C43.713,28.94,43.876,29,44.046,29c0.256,0,0.512-0.098,0.707-0.293l7.77-7.77
		l0.057,0.057c0.555,0.555,0.555,1.457,0,2.012l-4.287,4.287l1.414,1.414l4.287-4.287c0.667-0.667,1.001-1.544,1.001-2.42H60
		c0.551,0,1,0.449,1,1V49z"/><path d="M54.689,46.774c-0.243-0.23-0.281-0.765-0.315-1.236c-0.049-0.676-0.116-1.603-0.994-1.964
		c-1.155-0.476-2.143,0.65-3.1,1.738c-0.222,0.253-0.534,0.608-0.803,0.874c-0.032-0.412-0.031-0.944-0.031-1.32
		c0.001-1.491,0.003-2.899-1.103-3.306c-1.133-0.416-2.297,0.331-5.213,5.443l1.737,0.991c1.281-2.247,2.088-3.387,2.571-3.964
		c0.008,0.29,0.008,0.596,0.008,0.833c-0.002,1.55-0.004,3.153,1.224,3.58c1.172,0.409,2.155-0.722,3.112-1.811
		c0.172-0.196,0.4-0.455,0.616-0.682c0.06,0.691,0.204,1.601,0.911,2.273C53.855,48.741,54.586,49,55.518,49
		c0.788,0,1.72-0.185,2.805-0.555l-0.646-1.893C55.476,47.302,54.833,46.912,54.689,46.774z"/><rect width="14" height="2" x="45" y="38"/><rect width="7" height="2" x="49" y="34"/><path d="M12 32c-.551 0-1-.449-1-1H9c0 1.302.839 2.402 2 2.816V35h2v-1.184c1.161-.414 2-1.514 2-2.816 0-1.654-1.346-3-3-3-.551 0-1-.449-1-1s.449-1 1-1 1 .449 1 1h2c0-1.302-.839-2.402-2-2.816V23h-2v1.184C9.839 24.598 9 25.698 9 27c0 1.654 1.346 3 3 3 .551 0 1 .449 1 1S12.551 32 12 32zM19 32c-.551 0-1-.449-1-1h-2c0 1.302.839 2.402 2 2.816V35h2v-1.184c1.161-.414 2-1.514 2-2.816 0-1.654-1.346-3-3-3-.551 0-1-.449-1-1s.449-1 1-1 1 .449 1 1h2c0-1.302-.839-2.402-2-2.816V23h-2v1.184c-1.161.414-2 1.514-2 2.816 0 1.654 1.346 3 3 3 .551 0 1 .449 1 1S19.551 32 19 32zM26 32c-.551 0-1-.449-1-1h-2c0 1.302.839 2.402 2 2.816V35h2v-1.184c1.161-.414 2-1.514 2-2.816 0-1.654-1.346-3-3-3-.551 0-1-.449-1-1s.449-1 1-1 1 .449 1 1h2c0-1.302-.839-2.402-2-2.816V23h-2v1.184c-1.161.414-2 1.514-2 2.816 0 1.654 1.346 3 3 3 .551 0 1 .449 1 1S26.551 32 26 32z"/></svg>