<svg id="Layer_1" data-name="Layer 1" xmlns="http://www.w3.org/2000/svg" viewBox="0 0 122.88 72.21"><defs><style>.cls-1{fill-rule:evenodd;}</style></defs><title>wire-transfer</title><path class="cls-1" d="M111.88,45.35V72.21H57.5V45.35ZM57.38,4c-.56.08-1.12.18-1.67.29A27.63,27.63,0,0,0,50.23,6a31.53,31.53,0,0,0-5,2.71,28.42,28.42,0,0,0-4.29,3.54h0a29.25,29.25,0,0,0-2.59,3h8.92A66,66,0,0,1,57.38,4ZM25.72,38,19.31,39.9c.77,8.55,4.54,14.36,12.13,17.33-12.85,3-21.53-3.78-24.9-13.46L0,45.75,9,29.13,25.72,38Zm84.75-1L96.61,24.68l6.55-.36C104.4,16,102.16,9.61,95.63,5c12.91.13,19.6,8.58,20.57,18.56l6.68-.38L110.47,37ZM51.16,50.52h-.93c.3.4.61.79.93,1.19v4.34a49.56,49.56,0,0,1-4.44-5.53H38.28a29.34,29.34,0,0,0,2.64,3h0a28.42,28.42,0,0,0,4.29,3.54,31.53,31.53,0,0,0,5,2.71l.08,0,.85.34v4c-.77-.26-1.54-.55-2.3-.87l-.1,0a34.69,34.69,0,0,1-5.6-3,32.58,32.58,0,0,1-8.86-8.86,34.69,34.69,0,0,1-3-5.6,32.07,32.07,0,0,1-1.93-6.23,34.35,34.35,0,0,1,0-13.2,31.7,31.7,0,0,1,1.89-6.13l0-.1a34.69,34.69,0,0,1,3-5.6,32.72,32.72,0,0,1,4-4.86,31.56,31.56,0,0,1,4.86-4,34,34,0,0,1,5.6-3.05A32.07,32.07,0,0,1,55,.64a34.35,34.35,0,0,1,13.2,0,31.7,31.7,0,0,1,6.13,1.89l.1,0A34,34,0,0,1,80,5.62a32.14,32.14,0,0,1,8.85,8.85,34.73,34.73,0,0,1,3,5.6,32.07,32.07,0,0,1,1.93,6.23A34.34,34.34,0,0,1,93.94,39h-3.8l0-.25a29.28,29.28,0,0,0,.54-4.44H82.25A25.83,25.83,0,0,1,81.66,39H78.73a23.57,23.57,0,0,0,.67-4.69H63V39H60.16V34.33H43.77a27,27,0,0,0,4.54,13.45h2.85v2.74ZM36.45,47.78H45a28.93,28.93,0,0,1-4.06-13.45H32.45A29.57,29.57,0,0,0,33,38.78a28.07,28.07,0,0,0,1.7,5.48,33.06,33.06,0,0,0,1.77,3.52Zm-4-16.31H41a31,31,0,0,1,4.43-13.39h-9a32,32,0,0,0-1.74,3.46l0,.09A28.39,28.39,0,0,0,33,27a29.28,29.28,0,0,0-.53,4.44Zm11.39,0H60.16V18.08H48.76a29.24,29.24,0,0,0-4.92,13.39Zm19.18,0H79.34a29.24,29.24,0,0,0-4.92-13.39H63V31.47Zm19.18,0h8.53A29.28,29.28,0,0,0,90.19,27a27.93,27.93,0,0,0-1.69-5.49,33.88,33.88,0,0,0-1.74-3.46h-9A30.87,30.87,0,0,1,82.2,31.47ZM50.76,15.22h9.4V5.35a68.18,68.18,0,0,0-9.4,9.87Zm12.26,0h9.39A68.07,68.07,0,0,0,63,5.35v9.87Zm12.91,0h8.92a28.16,28.16,0,0,0-2.6-3h0A28,28,0,0,0,78,8.7,31.87,31.87,0,0,0,73,6l-.09,0a27,27,0,0,0-5.4-1.66c-.55-.11-1.1-.21-1.66-.29A66,66,0,0,1,75.93,15.22Zm4.15,40.92a6.11,6.11,0,1,1,2.74,8.19,6.1,6.1,0,0,1-2.74-8.19ZM66.2,49.32l36.9.25a4,4,0,0,0,4,3.9l.16,10.62a4,4,0,0,0-3.91,4l-36.91-.25a4,4,0,0,0-4-3.91l-.16-10.61a4,4,0,0,0,3.92-4Z"/></svg>