<svg width="167" height="203" viewBox="0 0 167 203" fill="none" xmlns="http://www.w3.org/2000/svg">
<g clip-path="url(#clip0)">
<path d="M104.174 97.7705C102.97 95.9562 103.371 93.3356 105.178 92.126L107.988 90.1102C109.393 89.1022 110.397 87.6911 110.798 85.8768C111.199 84.2641 112.605 82.853 114.21 82.6514C117.02 82.2482 119.228 84.8688 118.626 87.4895C117.823 91.1181 115.615 94.3435 112.404 96.561L109.594 98.5769C107.988 99.988 105.379 99.5848 104.174 97.7705Z" fill="#4591FF"/>
<path d="M110.999 94.7467C111.601 92.5292 109.995 90.5133 107.787 89.9086L104.977 91.9245C103.171 93.134 102.769 95.7547 103.974 97.569C105.178 99.3833 107.587 99.7864 109.393 98.7785C110.196 97.569 110.798 96.1578 110.999 94.7467Z" fill="#6EC8FF"/>
<path d="M75.8726 44.9543C77.077 39.5114 75.4712 33.8669 71.2561 30.0367C68.446 27.6176 68.2452 23.3843 70.4532 20.3604L74.869 14.3128C77.077 11.2889 78.2813 7.45875 77.8799 3.62856C77.6791 0.806317 74.6683 -0.806394 72.0589 0.403139C70.4532 1.20949 69.6503 2.82221 69.851 4.43492C70.0517 6.04763 69.4496 7.86193 68.446 9.27305L64.0301 15.3207C59.4135 21.57 59.815 30.8431 65.6359 35.8828C67.6431 37.6971 68.6467 40.3177 68.0445 42.9384C67.6431 44.5511 68.2452 46.3654 69.851 47.3733C72.0589 48.9861 75.2705 47.7765 75.8726 44.9543Z" fill="#4591FF"/>
<path d="M74.0661 15.3207C73.8654 15.3207 73.6647 15.1191 73.464 15.1191C72.0589 14.1111 71.4568 12.4984 71.6575 10.6841C72.0589 8.46664 71.4568 5.84599 69.6503 4.23328C69.6503 2.62057 70.4532 1.20944 71.8582 0.604677C74.2669 -0.604856 77.2777 1.00786 77.6791 3.8301C78.0806 7.4587 77.077 11.2889 74.6683 14.5143L74.0661 15.3207Z" fill="#FF8B00"/>
<path d="M90.1238 77.8132C91.5288 76.8053 92.131 75.1926 91.9303 73.3783C91.3281 70.7576 92.3317 68.137 94.3389 66.3227C100.361 61.283 100.762 52.0099 95.9447 45.7606L91.5288 39.9145C90.5252 38.5034 89.9231 36.6891 90.1238 35.0764C90.3245 33.2621 89.3209 31.6494 87.9158 31.0446C85.5072 29.8351 82.4964 31.4478 82.0949 34.27C81.6935 37.8986 82.6971 41.7288 85.1058 44.9543L89.5216 51.0019C91.7295 54.0258 91.3281 58.2591 88.7187 60.6782C84.5036 64.5084 82.6971 70.3545 84.1021 75.5958C84.7043 78.2164 87.9158 79.2244 90.1238 77.8132Z" fill="#4591FF"/>
<path d="M90.1238 77.8132C87.7151 79.4259 84.5036 78.2164 83.9014 75.3941C83.2992 72.9751 83.5 70.556 83.9014 68.3385C85.1057 66.9274 87.1129 66.3226 88.9194 67.129C90.5252 67.9353 91.3281 69.5481 91.1274 71.1608C91.1274 72.3703 91.3281 73.5798 91.7295 74.5878C91.9303 75.9989 91.3281 77.0069 90.1238 77.8132Z" fill="#FF8B00"/>
<path d="M66.4387 67.9355C68.2452 66.5243 68.6467 64.1053 67.2416 62.291L65.2344 59.4687C64.2308 58.0576 63.6286 56.2433 63.8293 54.6306C64.0301 52.8163 63.0265 51.2036 61.6214 50.5988C59.2128 49.3893 56.2019 51.002 55.8005 53.8242C55.3991 57.6544 56.4027 61.283 58.8113 64.5085L60.8185 67.3307C62.2236 68.9434 64.6322 69.3466 66.4387 67.9355Z" fill="#4591FF"/>
<path d="M60.8185 62.8957C61.0192 60.6782 63.2271 59.0655 65.2344 59.4687L67.2416 62.291C68.6466 64.1053 68.2452 66.7259 66.4387 67.9354C64.8329 69.145 62.4243 68.9434 61.0192 67.3307C60.8185 65.9196 60.6178 64.5084 60.8185 62.8957Z" fill="#FF8B00"/>
<path d="M45.1622 91.3197C46.9687 89.9086 47.3702 87.4896 45.9651 85.6753L43.9579 82.853C42.9543 81.4419 42.3521 79.6276 42.5529 78.0149C42.7536 76.2006 41.75 74.5879 40.3449 73.9831C37.9363 72.7736 34.9255 74.3863 34.524 77.2085C34.1226 81.0387 35.1262 84.6673 37.5348 87.8927L39.542 90.715C40.7464 92.1261 43.3557 92.5293 45.1622 91.3197Z" fill="#4591FF"/>
<path d="M39.3413 86.28C39.542 84.0625 41.75 82.4498 43.7572 82.853L45.7644 85.6752C47.1694 87.4895 46.768 90.1102 44.9615 91.3197C43.3557 92.5293 40.9471 92.3277 39.542 90.715C39.3413 89.3038 39.3413 87.6911 39.3413 86.28Z" fill="#6EC8FF"/>
<path d="M144.72 141.919L0 143.128V161.674C0.200721 164.9 2.20793 167.924 6.22236 170.343L54.7969 198.565C64.2308 204.008 80.8906 203.403 91.9303 196.952L135.286 171.754C140.906 168.528 143.917 164.295 144.319 160.263V141.919H144.72Z" fill="#1736CC"/>
<path d="M112.605 179.616L108.791 190.098C108.389 191.308 106.984 191.913 105.78 191.509C104.576 191.106 103.974 189.695 104.375 188.486L108.189 178.003C108.59 176.793 109.995 176.189 111.199 176.592C112.404 176.995 113.006 178.406 112.605 179.616Z" fill="#43AFFF"/>
<path d="M103.371 188.284L99.5577 198.767C99.1562 199.976 97.7512 200.581 96.5468 200.178C95.3425 199.775 94.7404 198.363 95.1418 197.154L98.9555 186.671C99.3569 185.462 100.762 184.857 101.966 185.26C103.171 185.663 103.773 187.074 103.371 188.284Z" fill="#FF8B00"/>
<path d="M98.1526 180.825L94.3389 191.308C93.9375 192.517 92.5324 193.122 91.3281 192.719C90.1238 192.316 89.5216 190.905 89.923 189.695L93.7368 179.213C94.1382 178.003 95.5432 177.398 96.7476 177.801C97.9519 178.205 98.5541 179.616 98.1526 180.825Z" fill="#43AFFF"/>
<path d="M87.5144 190.3L83.7007 200.782C83.2993 201.992 81.8942 202.597 80.6899 202.194C79.4856 201.79 78.8834 200.379 79.2849 199.17L83.0986 188.687C83.5 187.478 84.9051 186.873 86.1094 187.276C87.3137 187.881 87.9159 189.09 87.5144 190.3Z" fill="#FF8B00"/>
<path d="M134.483 168.125L130.669 178.608C130.268 179.817 128.863 180.422 127.659 180.019C126.454 179.616 125.852 178.204 126.254 176.995L130.067 166.512C130.469 165.303 131.874 164.698 133.078 165.101C134.282 165.504 134.885 166.915 134.483 168.125Z" fill="#FF8B00"/>
<path d="M124.447 178.809L120.433 189.292C120.031 190.502 118.626 191.106 117.422 190.703C116.218 190.3 115.615 188.889 116.017 187.679L119.83 177.197C120.232 175.987 121.637 175.382 122.841 175.786C124.246 176.189 124.849 177.6 124.447 178.809Z" fill="#43AFFF"/>
<path d="M122.239 166.512L118.425 176.995C118.024 178.205 116.619 178.809 115.415 178.406C114.21 178.003 113.608 176.592 114.01 175.382L117.823 164.9C118.225 163.69 119.63 163.085 120.834 163.489C122.038 163.892 122.841 165.303 122.239 166.512Z" fill="#FF8B00"/>
<path d="M155.76 155.223L151.946 165.706C151.544 166.916 150.139 167.52 148.935 167.117C147.731 166.714 147.129 165.303 147.53 164.093L151.344 153.611C151.745 152.401 153.15 151.796 154.354 152.2C155.559 152.603 156.161 154.014 155.76 155.223Z" fill="#43AFFF"/>
<path d="M143.516 162.682L139.702 173.165C139.301 174.374 137.895 174.979 136.691 174.576C135.487 174.173 134.885 172.762 135.286 171.552L139.1 161.069C139.501 159.86 140.906 159.255 142.111 159.658C143.315 160.062 143.917 161.473 143.516 162.682Z" fill="#43AFFF"/>
<path d="M167 154.014L163.186 164.496C162.785 165.706 161.38 166.311 160.176 165.908C158.971 165.504 158.369 164.093 158.77 162.884L162.584 152.401C162.986 151.192 164.391 150.587 165.595 150.99C166.799 151.393 167.402 152.804 167 154.014Z" fill="#43AFFF"/>
<path d="M163.989 141.314L160.175 151.796C159.774 153.006 158.369 153.611 157.165 153.207C155.96 152.804 155.358 151.393 155.76 150.184L159.573 139.701C159.975 138.492 161.38 137.887 162.584 138.29C163.788 138.693 164.391 140.104 163.989 141.314Z" fill="#FF8B00"/>
<path d="M100.561 162.279L96.7476 172.762C96.3462 173.971 94.9411 174.576 93.7368 174.173C92.5325 173.77 91.9303 172.358 92.3317 171.149L96.1454 160.666C96.5469 159.457 97.9519 158.852 99.1563 159.255C100.361 159.658 100.963 160.868 100.561 162.279Z" fill="#43AFFF"/>
<path d="M86.5108 163.287L82.6971 173.77C82.2956 174.979 80.8906 175.584 79.6863 175.181C78.2812 174.777 77.6791 173.366 78.2812 172.157L82.0949 161.674C82.4964 160.465 83.9014 159.86 85.1057 160.263C86.3101 160.868 86.9122 162.077 86.5108 163.287Z" fill="#43AFFF"/>
<path d="M82.6971 180.825L78.8834 191.308C78.4819 192.517 77.0769 193.122 75.8725 192.719C74.6682 192.316 74.066 190.905 74.4675 189.695L78.2812 179.213C78.6826 178.003 80.0877 177.398 81.292 177.801C82.4963 178.205 83.0985 179.616 82.6971 180.825Z" fill="#43AFFF"/>
<path d="M67.643 191.106L63.8293 201.589C63.4278 202.798 62.0228 203.403 60.8185 203C59.6141 202.597 59.012 201.186 59.4134 199.976L63.2271 189.494C63.6286 188.284 65.0336 187.679 66.2379 188.082C67.4423 188.486 68.0444 189.897 67.643 191.106Z" fill="#43AFFF"/>
<path d="M66.238 177.197L62.2236 187.679C61.8221 188.889 60.4171 189.493 59.2127 189.09C58.0084 188.687 57.4062 187.276 57.8077 186.066L61.6214 175.584C62.0228 174.374 63.4279 173.77 64.6322 174.173C66.0373 174.576 66.6394 175.987 66.238 177.197Z" fill="#FF8B00"/>
<path d="M121.436 152.603L117.623 163.085C117.221 164.295 115.816 164.9 114.612 164.496C113.407 164.093 112.805 162.682 113.207 161.473L117.02 150.99C117.422 149.78 118.827 149.176 120.031 149.579C121.236 149.982 121.838 151.393 121.436 152.603Z" fill="#43AFFF"/>
<path d="M108.189 169.939L104.375 180.422C103.974 181.632 102.569 182.236 101.364 181.833C100.16 181.43 99.5577 180.019 99.9592 178.809L103.773 168.327C104.174 167.117 105.579 166.512 106.784 166.916C107.988 167.319 108.59 168.73 108.189 169.939Z" fill="#43AFFF"/>
<path d="M109.393 151.998L105.579 162.481C105.178 163.69 103.773 164.295 102.568 163.892C101.364 163.489 100.762 162.077 101.163 160.868L104.977 150.385C105.379 149.176 106.784 148.571 107.988 148.974C109.192 149.377 109.794 150.788 109.393 151.998Z" fill="#FF8B00"/>
<path d="M143.315 147.765L139.501 158.247C139.1 159.457 137.695 160.061 136.49 159.658C135.286 159.255 134.684 157.844 135.085 156.634L138.899 146.152C139.301 144.942 140.706 144.338 141.91 144.741C143.315 145.345 143.917 146.555 143.315 147.765Z" fill="#43AFFF"/>
<path d="M132.677 154.82L128.863 165.303C128.462 166.512 127.056 167.117 125.852 166.714C124.648 166.311 124.046 164.9 124.447 163.69L128.261 153.208C128.662 151.998 130.067 151.393 131.272 151.796C132.677 152.2 133.279 153.611 132.677 154.82Z" fill="#43AFFF"/>
<path d="M130.067 142.926L126.254 153.409C125.852 154.619 124.447 155.223 123.243 154.82C122.038 154.417 121.436 153.006 121.838 151.796L125.651 141.314C126.053 140.104 127.458 139.499 128.662 139.903C129.867 140.306 130.669 141.717 130.067 142.926Z" fill="#43AFFF"/>
<path d="M153.953 139.298L150.139 149.78C149.738 150.99 148.333 151.595 147.129 151.192C145.924 150.788 145.322 149.377 145.724 148.168L149.537 137.685C149.939 136.476 151.344 135.871 152.548 136.274C153.953 136.879 154.555 138.088 153.953 139.298Z" fill="#43AFFF"/>
<path d="M150.942 126.799L147.129 137.282C146.727 138.492 145.322 139.096 144.118 138.693C142.913 138.29 142.311 136.879 142.713 135.669L146.526 125.187C146.928 123.977 148.333 123.372 149.537 123.776C150.742 124.179 151.544 125.59 150.942 126.799Z" fill="#FF8B00"/>
<path d="M72.2596 202.395V142.523L0 143.128V161.674C0.200721 164.9 2.20793 167.924 6.22236 170.343L54.7969 198.565C59.6142 201.387 65.8365 202.395 72.2596 202.395Z" fill="#0085F2"/>
<path d="M55.1984 181.43L6.42311 153.208C-3.01078 147.765 -2.00717 138.088 9.03249 131.638L52.3883 106.439C63.4279 99.9881 80.0878 99.3833 89.5217 104.826L138.096 133.049C147.53 138.492 146.526 148.168 135.487 154.619L92.3318 179.817C81.2921 186.268 64.6323 186.873 55.1984 181.43Z" fill="#83D6FF"/>
<path d="M35.327 174.576L66.0373 169.335C68.2453 168.932 70.4532 169.335 72.2597 170.141L92.9339 179.414L109.192 169.939V160.062C109.192 158.65 110.397 157.441 112.203 156.836L138.899 146.555C143.516 144.741 142.512 140.507 137.093 139.5L106.382 133.25C104.174 132.847 102.569 131.839 101.966 130.428L92.7332 112.285C91.1275 109.06 83.9015 108.253 80.4892 110.874L61.4207 125.792C60.0157 126.799 58.0085 127.404 55.5998 127.404L23.2837 126.396C17.6635 126.195 14.2513 129.823 17.4628 132.646L36.5313 148.168C37.9364 149.176 38.1371 150.587 37.5349 151.796L26.696 169.335C24.6888 172.56 29.9075 175.584 35.327 174.576Z" fill="#0085F2"/>
<path d="M92.934 173.366L69.6503 162.682C68.0446 161.876 65.8366 161.674 64.0301 162.077L36.1299 166.916C32.1155 167.52 28.1011 165.706 28.1011 163.489C28.1011 163.287 28.1011 163.287 28.1011 163.085L28.5025 147.16L38.3378 144.136C38.1371 143.733 37.7357 143.33 37.3342 142.926L20.2729 129.017C19.2693 128.21 19.0686 127.404 19.0686 126.598L19.47 110.471C19.47 110.471 30.9112 119.744 35.7285 123.574L54.5963 124.179C56.6035 124.179 58.6107 123.776 59.815 122.768L77.077 109.261C80.0878 106.842 86.5109 107.648 88.1167 110.471L96.3463 126.799C96.9484 128.009 98.3535 128.815 100.361 129.218L108.189 130.831V130.63L125.25 121.76H132.878L132.476 138.693C132.476 139.701 131.673 140.911 129.867 141.515L105.78 150.788C104.174 151.393 103.171 152.603 103.171 153.611V170.544C102.97 173.77 97.1491 175.382 92.934 173.366Z" fill="#C61705"/>
<path d="M64.2309 162.077L36.9329 166.714L37.7357 144.539L38.7394 144.136C38.5386 143.733 38.1372 143.33 37.7357 142.926V140.911L65.636 125.59L65.4353 162.077C65.0338 161.876 64.6324 162.077 64.2309 162.077Z" fill="#FF8B00"/>
<path d="M132.476 138.693C132.476 139.903 131.673 140.911 129.867 141.717L108.59 149.781L109.192 130.63L125.451 122.163H133.078L132.476 138.693Z" fill="#FF8B00"/>
<path d="M70.4532 165.908C72.2596 166.916 73.6647 166.109 73.6647 164.093C73.6647 162.077 72.2597 159.457 70.6539 158.449C68.8474 157.441 67.4423 158.247 67.4423 160.263C67.2416 162.279 68.6467 164.698 70.4532 165.908Z" fill="#FF8B00"/>
<path d="M75.4711 161.473C77.2776 162.481 78.6827 161.674 78.6827 159.658C78.6827 157.642 77.2776 155.022 75.6718 154.014C73.8653 153.006 72.4603 153.812 72.4603 155.828C72.2596 157.844 73.6646 160.465 75.4711 161.473Z" fill="#FF8B00"/>
<path d="M81.8942 169.738C83.7007 170.746 85.1058 169.939 85.1058 167.924C85.1058 165.908 83.7007 163.287 82.095 162.279C80.2885 161.271 78.8834 162.077 78.8834 164.093C78.8834 166.109 80.2885 168.73 81.8942 169.738Z" fill="#FF8B00"/>
<path d="M82.8978 160.868C84.7043 161.876 86.1093 161.07 86.1093 159.054C86.1093 157.038 84.7043 154.417 83.0985 153.409C81.292 152.401 79.887 153.208 79.887 155.223C79.887 157.239 81.0913 159.86 82.8978 160.868Z" fill="#FF8B00"/>
<path d="M91.7296 161.876C93.5361 162.884 94.9412 162.077 94.9412 160.062C94.9412 158.046 93.5361 155.425 91.9304 154.417C90.1239 153.409 88.7188 154.216 88.7188 156.231C88.5181 158.247 89.9232 160.868 91.7296 161.876Z" fill="#FF8B00"/>
<path d="M89.9231 170.544C91.7296 171.552 93.1347 170.746 93.1347 168.73C93.1347 166.714 91.7296 164.093 90.1239 163.085C88.3174 162.077 86.9123 162.884 86.9123 164.9C86.7116 166.916 88.1166 169.335 89.9231 170.544Z" fill="#FF8B00"/>
<path d="M96.7476 178.205C98.5541 179.213 99.9592 178.406 99.9592 176.39C99.9592 174.374 98.5541 171.754 96.9484 170.746C95.1419 169.738 93.7368 170.544 93.7368 172.56C93.7368 174.576 95.1419 177.197 96.7476 178.205Z" fill="#FF8B00"/>
<path d="M67.8438 154.619C69.6503 155.627 71.0554 154.82 71.0554 152.804C71.0554 150.788 69.6503 148.168 68.0445 147.16C66.2381 146.152 64.833 146.958 64.833 148.974C64.833 150.99 66.2381 153.611 67.8438 154.619Z" fill="#FF8B00"/>
<path d="M74.6683 151.595C76.4748 152.603 77.8798 151.796 77.8798 149.781C77.8798 147.765 76.4748 145.144 74.869 144.136C73.0625 143.128 71.6575 143.934 71.6575 145.95C71.6575 147.966 72.8618 150.587 74.6683 151.595Z" fill="#FF8B00"/>
<path d="M22.8822 120.953C24.488 121.961 25.6923 121.155 25.6923 119.341C25.6923 117.526 24.488 115.309 22.8822 114.301C21.2765 113.293 20.0721 114.099 20.0721 115.914C20.0721 117.93 21.4772 120.147 22.8822 120.953Z" fill="#FF8B00"/>
<path d="M29.1045 120.349C30.7103 121.357 31.9146 120.55 31.9146 118.736C31.9146 116.922 30.7103 114.704 29.1045 113.696C27.4988 112.688 26.2944 113.495 26.2944 115.309C26.2944 117.123 27.6995 119.341 29.1045 120.349Z" fill="#FF8B00"/>
<path d="M23.2837 129.622C24.8895 130.63 26.0938 129.823 26.0938 128.009C26.0938 126.195 24.8895 123.977 23.2837 122.969C21.678 121.961 20.4736 122.768 20.4736 124.582C20.4736 126.396 21.678 128.614 23.2837 129.622Z" fill="#FF8B00"/>
<path d="M29.9075 128.815C31.5133 129.823 32.7176 129.017 32.7176 127.203C32.7176 125.388 31.5133 123.171 29.9075 122.163C28.3017 121.155 27.0974 121.961 27.0974 123.776C27.2981 125.59 28.5025 127.807 29.9075 128.815Z" fill="#FF8B00"/>
<path d="M35.9291 127.203C37.5349 128.211 38.7392 127.404 38.7392 125.59C38.7392 123.776 37.5349 121.558 35.9291 120.55C34.3233 119.542 33.119 120.349 33.119 122.163C33.119 123.977 34.3233 126.195 35.9291 127.203Z" fill="#FF8B00"/>
<path d="M23.0829 137.887C24.6887 138.895 25.893 138.088 25.893 136.274C25.893 134.46 24.6887 132.242 23.0829 131.234C21.4772 130.226 20.2728 131.033 20.2728 132.847C20.2728 134.661 21.4772 136.879 23.0829 137.887Z" fill="#FF8B00"/>
<path d="M29.9075 137.081C31.5133 138.089 32.7176 137.282 32.7176 135.468C32.7176 133.654 31.5133 131.436 29.9075 130.428C28.3017 129.42 27.0974 130.227 27.0974 132.041C27.0974 133.855 28.3017 136.073 29.9075 137.081Z" fill="#FF8B00"/>
<path d="M35.7284 135.669C37.3342 136.677 38.5385 135.871 38.5385 134.057C38.5385 132.242 37.3342 130.025 35.7284 129.017C34.1227 128.009 32.9183 128.815 32.9183 130.63C32.9183 132.444 34.3234 134.661 35.7284 135.669Z" fill="#FF8B00"/>
<path d="M36.7321 150.385L64.6323 145.547C66.6395 145.144 68.6468 145.547 70.2525 146.152L93.5362 156.836C97.5506 158.65 103.572 157.038 103.572 154.215V137.282C103.572 136.072 104.576 135.065 106.182 134.46L130.268 125.187C134.483 123.574 133.48 119.744 128.662 118.736L100.963 113.091C98.9557 112.688 97.5506 111.68 96.9484 110.672L88.7189 94.3436C87.3138 91.5213 80.69 90.715 77.6792 93.134L60.4172 106.64C59.2129 107.648 57.2057 108.052 55.1984 108.052L25.8931 106.842C20.6744 106.64 17.6636 110.067 20.6744 112.487L37.7357 126.396C38.94 127.404 39.3415 128.614 38.5386 129.823L28.7032 145.749C27.2982 148.369 31.9148 151.192 36.7321 150.385Z" fill="#FFD72E"/>
<path d="M46.166 143.934L65.8366 140.507C67.2417 140.306 68.6467 140.507 69.851 140.911L86.3102 148.571C89.1203 149.982 93.3354 148.773 93.3354 146.757V134.863C93.3354 134.057 94.1383 133.25 95.1419 132.847L112.203 126.396C115.214 125.187 114.612 122.566 110.999 121.961L91.3282 117.929C89.9232 117.728 88.9196 116.921 88.5181 116.115L82.6972 104.625C81.6936 102.609 77.077 102.004 74.8691 103.818L62.6251 113.293C61.8222 113.898 60.4172 114.301 59.0121 114.301L38.3378 113.696C34.7249 113.494 32.5169 115.914 34.7248 117.728L46.7681 127.606C47.571 128.21 47.7717 129.218 47.3703 130.025L40.5458 141.112C39.5422 142.523 42.7537 144.539 46.166 143.934Z" fill="#FFA300"/>
<path d="M110.397 126.799L92.3319 122.969C90.9269 122.768 89.9233 121.961 89.5218 121.155L83.7009 109.664C82.6973 107.648 78.0807 107.044 75.8728 108.858L63.6288 118.333C62.8259 118.937 61.4208 119.341 60.0158 119.341L39.3415 118.736C38.5386 118.736 37.7358 118.736 37.1336 118.937L34.9257 117.123C32.7177 115.309 34.9257 113.091 38.5386 113.091L59.2129 113.696C60.618 113.696 62.023 113.293 62.8259 112.688L75.0699 103.214C77.2778 101.601 81.6937 102.004 82.898 104.02L88.7189 115.51C89.1204 116.317 90.124 116.922 91.529 117.325L111.2 121.357C114.612 122.163 115.214 124.784 112.404 125.791L110.397 126.799Z" fill="#C61705"/>
<path d="M42.9545 143.733C41.148 143.128 39.9436 141.919 40.7465 140.507L46.3667 131.436L47.571 129.42C47.7718 129.017 47.7718 128.614 47.7718 128.211C47.7718 128.211 50.1804 131.638 48.3739 134.661C48.3739 134.661 48.3739 134.661 48.3739 134.863L42.9545 143.733Z" fill="#C61705"/>
<path d="M81.8943 137.08C76.6756 139.903 68.2453 139.701 63.2273 136.677C60.6179 135.065 59.4136 133.049 59.4136 131.234L59.6143 126.195H62.8258C63.0266 126.195 63.2273 125.993 63.2273 125.993C68.446 123.171 76.8763 123.372 81.8943 126.396C82.0951 126.396 82.0951 126.598 82.2958 126.598H85.9088L85.708 131.839C85.708 133.855 84.5037 135.669 81.8943 137.08Z" fill="#C61705"/>
<path d="M82.0951 131.839C87.3139 129.017 87.5146 124.179 82.2959 120.953C77.2778 117.929 68.8475 117.728 63.6288 120.55C58.41 123.372 58.2093 128.211 63.4281 131.436C68.6468 134.46 76.8764 134.661 82.0951 131.839Z" fill="#FFE36E"/>
<path d="M79.0842 129.823C82.4965 128.009 82.6972 124.783 79.2849 122.566C75.8727 120.55 70.4532 120.348 66.8402 122.364C63.428 124.179 63.2273 127.404 66.6395 129.622C70.0518 131.637 75.672 131.839 79.0842 129.823Z" fill="#FFA300"/>
</g>
<defs>
<clipPath id="clip0">
<rect width="167" height="203" fill="white"/>
</clipPath>
</defs>
</svg>
